%TF.GenerationSoftware,KiCad,Pcbnew,8.0.3*%
%TF.CreationDate,2025-03-22T11:48:59+07:00*%
%TF.ProjectId,ES32_SmartBox,45533332-5f53-46d6-9172-74426f782e6b,rev?*%
%TF.SameCoordinates,Original*%
%TF.FileFunction,Soldermask,Bot*%
%TF.FilePolarity,Negative*%
%FSLAX46Y46*%
G04 Gerber Fmt 4.6, Leading zero omitted, Abs format (unit mm)*
G04 Created by KiCad (PCBNEW 8.0.3) date 2025-03-22 11:48:59*
%MOMM*%
%LPD*%
G01*
G04 APERTURE LIST*
G04 Aperture macros list*
%AMRoundRect*
0 Rectangle with rounded corners*
0 $1 Rounding radius*
0 $2 $3 $4 $5 $6 $7 $8 $9 X,Y pos of 4 corners*
0 Add a 4 corners polygon primitive as box body*
4,1,4,$2,$3,$4,$5,$6,$7,$8,$9,$2,$3,0*
0 Add four circle primitives for the rounded corners*
1,1,$1+$1,$2,$3*
1,1,$1+$1,$4,$5*
1,1,$1+$1,$6,$7*
1,1,$1+$1,$8,$9*
0 Add four rect primitives between the rounded corners*
20,1,$1+$1,$2,$3,$4,$5,0*
20,1,$1+$1,$4,$5,$6,$7,0*
20,1,$1+$1,$6,$7,$8,$9,0*
20,1,$1+$1,$8,$9,$2,$3,0*%
G04 Aperture macros list end*
%ADD10RoundRect,0.250000X0.620000X0.845000X-0.620000X0.845000X-0.620000X-0.845000X0.620000X-0.845000X0*%
%ADD11O,1.740000X2.190000*%
%ADD12C,0.650000*%
%ADD13O,1.000000X2.100000*%
%ADD14O,1.000000X1.800000*%
%ADD15R,1.700000X1.700000*%
%ADD16O,1.700000X1.700000*%
%ADD17RoundRect,0.250000X-0.620000X-0.845000X0.620000X-0.845000X0.620000X0.845000X-0.620000X0.845000X0*%
%ADD18RoundRect,0.250000X-0.725000X0.600000X-0.725000X-0.600000X0.725000X-0.600000X0.725000X0.600000X0*%
%ADD19O,1.950000X1.700000*%
%ADD20C,2.000000*%
%ADD21R,2.600000X2.600000*%
%ADD22C,2.600000*%
%ADD23RoundRect,0.250000X-0.845000X0.620000X-0.845000X-0.620000X0.845000X-0.620000X0.845000X0.620000X0*%
%ADD24O,2.190000X1.740000*%
%ADD25R,2.200000X2.200000*%
%ADD26O,2.200000X2.200000*%
%ADD27C,1.620000*%
%ADD28RoundRect,0.250000X0.600000X0.725000X-0.600000X0.725000X-0.600000X-0.725000X0.600000X-0.725000X0*%
%ADD29O,1.700000X1.950000*%
%ADD30R,2.190000X1.740000*%
G04 APERTURE END LIST*
D10*
%TO.C,J10*%
X88420000Y-119370000D03*
D11*
X85880000Y-119370000D03*
X83340000Y-119370000D03*
%TD*%
D12*
%TO.C,J1*%
X145930000Y-140020000D03*
X151710000Y-140020000D03*
D13*
X144500000Y-139500000D03*
D14*
X144500000Y-143700000D03*
D13*
X153140000Y-139500000D03*
D14*
X153140000Y-143700000D03*
%TD*%
D15*
%TO.C,J8*%
X95870000Y-119070000D03*
D16*
X98410000Y-119070000D03*
X100950000Y-119070000D03*
X103490000Y-119070000D03*
X106030000Y-119070000D03*
%TD*%
D17*
%TO.C,J4*%
X110660800Y-90481800D03*
D11*
X113200800Y-90481800D03*
%TD*%
D18*
%TO.C,J2*%
X80886667Y-150190000D03*
D19*
X80886667Y-152690000D03*
X80886667Y-155190000D03*
%TD*%
D15*
%TO.C,J7*%
X163190000Y-115500000D03*
D16*
X163190000Y-118040000D03*
X163190000Y-120580000D03*
X163190000Y-123120000D03*
X163190000Y-125660000D03*
%TD*%
D17*
%TO.C,J11*%
X100482400Y-90373200D03*
D11*
X103022400Y-90373200D03*
X105562400Y-90373200D03*
%TD*%
D20*
%TO.C,REF\u002A\u002A*%
X128470000Y-141100000D03*
%TD*%
D21*
%TO.C,J5*%
X78345000Y-135330000D03*
D22*
X78345000Y-140410000D03*
%TD*%
D23*
%TO.C,J10*%
X116030000Y-137260000D03*
D24*
X116030000Y-139800000D03*
X116030000Y-142340000D03*
%TD*%
D17*
%TO.C,J6*%
X93290000Y-90230000D03*
D11*
X95830000Y-90230000D03*
%TD*%
D23*
%TO.C,J9*%
X164960000Y-129640000D03*
D24*
X164960000Y-132180000D03*
%TD*%
D15*
%TO.C,REF\u002A\u002A*%
X163140000Y-99030000D03*
D16*
X163140000Y-101570000D03*
X163140000Y-104110000D03*
X163140000Y-106650000D03*
X163140000Y-109190000D03*
X163140000Y-111730000D03*
%TD*%
D20*
%TO.C,REF\u002A\u002A*%
X128760000Y-91060000D03*
%TD*%
%TO.C,REF\u002A\u002A*%
X162790000Y-90880000D03*
%TD*%
D25*
%TO.C,D1*%
X118160800Y-99491800D03*
D26*
X118160800Y-89331800D03*
%TD*%
D20*
%TO.C,REF\u002A\u002A*%
X162940000Y-141100000D03*
%TD*%
D27*
%TO.C,RV1*%
X92740000Y-105190000D03*
X87740000Y-107690000D03*
X92740000Y-110190000D03*
%TD*%
D28*
%TO.C,J3*%
X85910000Y-95220000D03*
D29*
X83410000Y-95220000D03*
X80910000Y-95220000D03*
%TD*%
D30*
%TO.C,J9*%
X116260000Y-129050000D03*
D24*
X116260000Y-131590000D03*
%TD*%
M02*
