%TF.GenerationSoftware,KiCad,Pcbnew,8.0.3*%
%TF.CreationDate,2025-03-22T09:10:22+07:00*%
%TF.ProjectId,ES32_SmartBox,45533332-5f53-46d6-9172-74426f782e6b,rev?*%
%TF.SameCoordinates,Original*%
%TF.FileFunction,Paste,Top*%
%TF.FilePolarity,Positive*%
%FSLAX46Y46*%
G04 Gerber Fmt 4.6, Leading zero omitted, Abs format (unit mm)*
G04 Created by KiCad (PCBNEW 8.0.3) date 2025-03-22 09:10:22*
%MOMM*%
%LPD*%
G01*
G04 APERTURE LIST*
G04 Aperture macros list*
%AMRoundRect*
0 Rectangle with rounded corners*
0 $1 Rounding radius*
0 $2 $3 $4 $5 $6 $7 $8 $9 X,Y pos of 4 corners*
0 Add a 4 corners polygon primitive as box body*
4,1,4,$2,$3,$4,$5,$6,$7,$8,$9,$2,$3,0*
0 Add four circle primitives for the rounded corners*
1,1,$1+$1,$2,$3*
1,1,$1+$1,$4,$5*
1,1,$1+$1,$6,$7*
1,1,$1+$1,$8,$9*
0 Add four rect primitives between the rounded corners*
20,1,$1+$1,$2,$3,$4,$5,0*
20,1,$1+$1,$4,$5,$6,$7,0*
20,1,$1+$1,$6,$7,$8,$9,0*
20,1,$1+$1,$8,$9,$2,$3,0*%
G04 Aperture macros list end*
%ADD10R,3.500000X2.350000*%
%ADD11R,0.600000X1.240000*%
%ADD12R,0.300000X1.240000*%
%ADD13RoundRect,0.200000X-0.275000X0.200000X-0.275000X-0.200000X0.275000X-0.200000X0.275000X0.200000X0*%
%ADD14RoundRect,0.225000X0.225000X0.250000X-0.225000X0.250000X-0.225000X-0.250000X0.225000X-0.250000X0*%
%ADD15RoundRect,0.225000X-0.225000X-0.250000X0.225000X-0.250000X0.225000X0.250000X-0.225000X0.250000X0*%
%ADD16RoundRect,0.150000X0.587500X0.150000X-0.587500X0.150000X-0.587500X-0.150000X0.587500X-0.150000X0*%
%ADD17RoundRect,0.200000X0.275000X-0.200000X0.275000X0.200000X-0.275000X0.200000X-0.275000X-0.200000X0*%
%ADD18RoundRect,0.225000X-0.250000X0.225000X-0.250000X-0.225000X0.250000X-0.225000X0.250000X0.225000X0*%
%ADD19RoundRect,0.150000X0.150000X-0.587500X0.150000X0.587500X-0.150000X0.587500X-0.150000X-0.587500X0*%
%ADD20RoundRect,0.150000X0.512500X0.150000X-0.512500X0.150000X-0.512500X-0.150000X0.512500X-0.150000X0*%
%ADD21RoundRect,0.250000X-1.100000X0.325000X-1.100000X-0.325000X1.100000X-0.325000X1.100000X0.325000X0*%
%ADD22RoundRect,0.150000X-0.512500X-0.150000X0.512500X-0.150000X0.512500X0.150000X-0.512500X0.150000X0*%
%ADD23RoundRect,0.225000X0.250000X-0.225000X0.250000X0.225000X-0.250000X0.225000X-0.250000X-0.225000X0*%
%ADD24RoundRect,0.250000X0.325000X1.100000X-0.325000X1.100000X-0.325000X-1.100000X0.325000X-1.100000X0*%
%ADD25RoundRect,0.200000X0.200000X0.275000X-0.200000X0.275000X-0.200000X-0.275000X0.200000X-0.275000X0*%
%ADD26RoundRect,0.250000X0.375000X0.625000X-0.375000X0.625000X-0.375000X-0.625000X0.375000X-0.625000X0*%
%ADD27RoundRect,0.150000X-0.587500X-0.150000X0.587500X-0.150000X0.587500X0.150000X-0.587500X0.150000X0*%
%ADD28R,0.300000X1.100000*%
%ADD29R,2.300000X3.100000*%
%ADD30RoundRect,0.250000X-0.250000X-0.475000X0.250000X-0.475000X0.250000X0.475000X-0.250000X0.475000X0*%
%ADD31RoundRect,0.250000X-0.475000X0.250000X-0.475000X-0.250000X0.475000X-0.250000X0.475000X0.250000X0*%
%ADD32RoundRect,0.250000X0.475000X-0.250000X0.475000X0.250000X-0.475000X0.250000X-0.475000X-0.250000X0*%
%ADD33RoundRect,0.200000X-0.800000X0.200000X-0.800000X-0.200000X0.800000X-0.200000X0.800000X0.200000X0*%
%ADD34RoundRect,0.375000X-0.375000X0.625000X-0.375000X-0.625000X0.375000X-0.625000X0.375000X0.625000X0*%
%ADD35RoundRect,0.500000X-1.400000X0.500000X-1.400000X-0.500000X1.400000X-0.500000X1.400000X0.500000X0*%
%ADD36R,0.900000X0.900000*%
%ADD37R,1.500000X0.900000*%
%ADD38R,0.900000X1.500000*%
%ADD39RoundRect,0.250000X0.250000X0.475000X-0.250000X0.475000X-0.250000X-0.475000X0.250000X-0.475000X0*%
%ADD40RoundRect,0.250000X-0.650000X1.000000X-0.650000X-1.000000X0.650000X-1.000000X0.650000X1.000000X0*%
%ADD41RoundRect,0.218750X-0.218750X-0.256250X0.218750X-0.256250X0.218750X0.256250X-0.218750X0.256250X0*%
%ADD42R,1.100000X0.510000*%
%ADD43RoundRect,0.230000X-0.230000X-0.375000X0.230000X-0.375000X0.230000X0.375000X-0.230000X0.375000X0*%
%ADD44RoundRect,0.150000X-0.825000X-0.150000X0.825000X-0.150000X0.825000X0.150000X-0.825000X0.150000X0*%
G04 APERTURE END LIST*
D10*
%TO.C,L1*%
X106410000Y-136665000D03*
X106410000Y-142715000D03*
%TD*%
D11*
%TO.C,J1*%
X145620000Y-138900000D03*
X146420000Y-138900000D03*
D12*
X147570000Y-138900000D03*
X148570000Y-138900000D03*
X149070000Y-138900000D03*
X150070000Y-138900000D03*
D11*
X151220000Y-138900000D03*
X152020000Y-138900000D03*
X152020000Y-138900000D03*
X151220000Y-138900000D03*
D12*
X150570000Y-138900000D03*
X149570000Y-138900000D03*
X148070000Y-138900000D03*
X147070000Y-138900000D03*
D11*
X146420000Y-138900000D03*
X145620000Y-138900000D03*
%TD*%
D13*
%TO.C,R22*%
X155780000Y-141465000D03*
X155780000Y-143115000D03*
%TD*%
D14*
%TO.C,C6*%
X133850000Y-97195000D03*
X132300000Y-97195000D03*
%TD*%
D15*
%TO.C,C19*%
X129627500Y-129417500D03*
X131177500Y-129417500D03*
%TD*%
D16*
%TO.C,Q10*%
X141237500Y-134302500D03*
X141237500Y-132402500D03*
X139362500Y-133352500D03*
%TD*%
D13*
%TO.C,R9*%
X86790000Y-149755000D03*
X86790000Y-151405000D03*
%TD*%
%TO.C,R18*%
X95650000Y-130605000D03*
X95650000Y-132255000D03*
%TD*%
D17*
%TO.C,R16*%
X91880000Y-138950000D03*
X91880000Y-137300000D03*
%TD*%
D18*
%TO.C,C3*%
X152165000Y-125060000D03*
X152165000Y-126610000D03*
%TD*%
D19*
%TO.C,Q3*%
X110200000Y-106360000D03*
X112100000Y-106360000D03*
X111150000Y-104485000D03*
%TD*%
D20*
%TO.C,U8*%
X100460000Y-136765000D03*
X100460000Y-135815000D03*
X100460000Y-134865000D03*
X98185000Y-134865000D03*
X98185000Y-135815000D03*
X98185000Y-136765000D03*
%TD*%
D13*
%TO.C,R14*%
X141131666Y-125010000D03*
X141131666Y-126660000D03*
%TD*%
D21*
%TO.C,C11*%
X97060000Y-140900000D03*
X97060000Y-143850000D03*
%TD*%
D22*
%TO.C,U5*%
X133585000Y-133680000D03*
X133585000Y-135580000D03*
X135860000Y-134630000D03*
%TD*%
D23*
%TO.C,C5*%
X143338332Y-126610000D03*
X143338332Y-125060000D03*
%TD*%
D24*
%TO.C,C13*%
X129295000Y-122370000D03*
X126345000Y-122370000D03*
%TD*%
D16*
%TO.C,Q9*%
X141100000Y-130500000D03*
X141100000Y-128600000D03*
X139225000Y-129550000D03*
%TD*%
D17*
%TO.C,R2*%
X106196666Y-110740000D03*
X106196666Y-109090000D03*
%TD*%
%TO.C,R1*%
X103343333Y-110740000D03*
X103343333Y-109090000D03*
%TD*%
D25*
%TO.C,R13*%
X146325000Y-134620000D03*
X144675000Y-134620000D03*
%TD*%
D15*
%TO.C,C7*%
X97915000Y-139020000D03*
X99465000Y-139020000D03*
%TD*%
D26*
%TO.C,D2*%
X97590000Y-150150000D03*
X94790000Y-150150000D03*
%TD*%
D13*
%TO.C,R21*%
X141670000Y-141295000D03*
X141670000Y-142945000D03*
%TD*%
D27*
%TO.C,Q11*%
X158050000Y-124952500D03*
X158050000Y-126852500D03*
X159925000Y-125902500D03*
%TD*%
D28*
%TO.C,U3*%
X139440000Y-117680000D03*
X139940000Y-117680000D03*
X140440000Y-117680000D03*
X140940000Y-117680000D03*
X141440000Y-117680000D03*
X141940000Y-117680000D03*
X142440000Y-117680000D03*
X142940000Y-117680000D03*
X143440000Y-117680000D03*
X143940000Y-117680000D03*
X144440000Y-117680000D03*
X144940000Y-117680000D03*
X145440000Y-117680000D03*
X145940000Y-117680000D03*
X146440000Y-117680000D03*
X146940000Y-117680000D03*
X147440000Y-117680000D03*
X147940000Y-117680000D03*
X148440000Y-117680000D03*
X148940000Y-117680000D03*
X149440000Y-117680000D03*
X149940000Y-117680000D03*
X150440000Y-117680000D03*
X150940000Y-117680000D03*
D29*
X137770000Y-119380000D03*
X152610000Y-119380000D03*
%TD*%
D30*
%TO.C,C15*%
X129452500Y-127430000D03*
X131352500Y-127430000D03*
%TD*%
D25*
%TO.C,R19*%
X155810000Y-128440000D03*
X154160000Y-128440000D03*
%TD*%
D19*
%TO.C,Q4*%
X99720000Y-106337500D03*
X101620000Y-106337500D03*
X100670000Y-104462500D03*
%TD*%
D25*
%TO.C,R10*%
X83412500Y-113780000D03*
X81762500Y-113780000D03*
%TD*%
D31*
%TO.C,C10*%
X100690000Y-141545000D03*
X100690000Y-143445000D03*
%TD*%
D32*
%TO.C,C8*%
X98330000Y-132320000D03*
X98330000Y-130420000D03*
%TD*%
D33*
%TO.C,SW1*%
X151300000Y-128700000D03*
X151300000Y-132900000D03*
%TD*%
D26*
%TO.C,Q6*%
X120500000Y-154960000D03*
X117700000Y-154960000D03*
%TD*%
D30*
%TO.C,C18*%
X129232500Y-131717500D03*
X131132500Y-131717500D03*
%TD*%
D15*
%TO.C,C17*%
X129577500Y-135887500D03*
X131127500Y-135887500D03*
%TD*%
D19*
%TO.C,Q1*%
X104290000Y-106380000D03*
X106190000Y-106380000D03*
X105240000Y-104505000D03*
%TD*%
D13*
%TO.C,R8*%
X86570000Y-153465000D03*
X86570000Y-155115000D03*
%TD*%
D23*
%TO.C,C1*%
X149958330Y-126610000D03*
X149958330Y-125060000D03*
%TD*%
D17*
%TO.C,R7*%
X100490000Y-110765000D03*
X100490000Y-109115000D03*
%TD*%
D34*
%TO.C,U4*%
X131870000Y-112590000D03*
X129570000Y-112590000D03*
D35*
X129570000Y-118890000D03*
D34*
X127270000Y-112590000D03*
%TD*%
D36*
%TO.C,U1*%
X142700000Y-100950000D03*
X142700000Y-102350000D03*
X142700000Y-103750000D03*
X144100000Y-100950000D03*
X144100000Y-102350000D03*
X144100000Y-103750000D03*
X145500000Y-100950000D03*
X145500000Y-102350000D03*
X145500000Y-103750000D03*
D37*
X136850000Y-94630000D03*
X136850000Y-95900000D03*
X136850000Y-97170000D03*
X136850000Y-98440000D03*
X136850000Y-99710000D03*
X136850000Y-100980000D03*
X136850000Y-102250000D03*
X136850000Y-103520000D03*
X136850000Y-104790000D03*
X136850000Y-106060000D03*
X136850000Y-107330000D03*
X136850000Y-108600000D03*
X136850000Y-109870000D03*
X136850000Y-111140000D03*
D38*
X138615000Y-112390000D03*
X139885000Y-112390000D03*
X141155000Y-112390000D03*
X142425000Y-112390000D03*
X143695000Y-112390000D03*
X144965000Y-112390000D03*
X146235000Y-112390000D03*
X147505000Y-112390000D03*
X148775000Y-112390000D03*
X150045000Y-112390000D03*
X151315000Y-112390000D03*
X152585000Y-112390000D03*
D37*
X154350000Y-111140000D03*
X154350000Y-109870000D03*
X154350000Y-108600000D03*
X154350000Y-107330000D03*
X154350000Y-106060000D03*
X154350000Y-104790000D03*
X154350000Y-103520000D03*
X154350000Y-102250000D03*
X154350000Y-100980000D03*
X154350000Y-99710000D03*
X154350000Y-98440000D03*
X154350000Y-97170000D03*
X154350000Y-95900000D03*
X154350000Y-94630000D03*
%TD*%
D39*
%TO.C,C14*%
X133480000Y-122220000D03*
X131580000Y-122220000D03*
%TD*%
D26*
%TO.C,D3*%
X120430000Y-149830000D03*
X117630000Y-149830000D03*
%TD*%
D17*
%TO.C,R12*%
X138930000Y-126675000D03*
X138930000Y-125025000D03*
%TD*%
D26*
%TO.C,D6*%
X166316667Y-149540000D03*
X163516667Y-149540000D03*
%TD*%
%TO.C,Q7*%
X143443333Y-154960000D03*
X140643333Y-154960000D03*
%TD*%
D40*
%TO.C,D7*%
X137060000Y-138550000D03*
X137060000Y-142550000D03*
%TD*%
D33*
%TO.C,SW2*%
X145650000Y-128700000D03*
X145650000Y-132900000D03*
%TD*%
D25*
%TO.C,R15*%
X133900000Y-99180000D03*
X132250000Y-99180000D03*
%TD*%
D26*
%TO.C,Q8*%
X166386667Y-154960000D03*
X163586667Y-154960000D03*
%TD*%
D17*
%TO.C,R4*%
X117610000Y-110605000D03*
X117610000Y-108955000D03*
%TD*%
D14*
%TO.C,C9*%
X157090000Y-132260000D03*
X155540000Y-132260000D03*
%TD*%
D26*
%TO.C,Q5*%
X97630000Y-154960000D03*
X94830000Y-154960000D03*
%TD*%
D22*
%TO.C,U6*%
X133605000Y-129797500D03*
X133605000Y-131697500D03*
X135880000Y-130747500D03*
%TD*%
D26*
%TO.C,D5*%
X143373333Y-149580000D03*
X140573333Y-149580000D03*
%TD*%
D17*
%TO.C,R17*%
X91870000Y-135635000D03*
X91870000Y-133985000D03*
%TD*%
D25*
%TO.C,R20*%
X155880000Y-124960000D03*
X154230000Y-124960000D03*
%TD*%
D41*
%TO.C,D4*%
X78125000Y-113740000D03*
X79700000Y-113740000D03*
%TD*%
D30*
%TO.C,C16*%
X129202500Y-133987500D03*
X131102500Y-133987500D03*
%TD*%
D19*
%TO.C,Q2*%
X116065000Y-106245000D03*
X117965000Y-106245000D03*
X117015000Y-104370000D03*
%TD*%
D13*
%TO.C,R11*%
X147751664Y-125010000D03*
X147751664Y-126660000D03*
%TD*%
D27*
%TO.C,Q12*%
X157950000Y-128500000D03*
X157950000Y-130400000D03*
X159825000Y-129450000D03*
%TD*%
D17*
%TO.C,R5*%
X109049999Y-110720000D03*
X109049999Y-109070000D03*
%TD*%
%TO.C,R3*%
X114756665Y-110605000D03*
X114756665Y-108955000D03*
%TD*%
D31*
%TO.C,C12*%
X127080000Y-107830000D03*
X127080000Y-109730000D03*
%TD*%
D42*
%TO.C,U7*%
X155240000Y-134160000D03*
X155240000Y-135160000D03*
X155240000Y-136160000D03*
X155240000Y-137160000D03*
X155240000Y-138160000D03*
X160340000Y-138160000D03*
X160340000Y-137160000D03*
X160340000Y-136160000D03*
X160340000Y-135160000D03*
X160340000Y-134160000D03*
%TD*%
D17*
%TO.C,R6*%
X111903332Y-110720000D03*
X111903332Y-109070000D03*
%TD*%
D18*
%TO.C,C4*%
X145544998Y-125060000D03*
X145544998Y-126610000D03*
%TD*%
D43*
%TO.C,U2*%
X80525000Y-106385000D03*
X80525000Y-107885000D03*
X81665000Y-106385000D03*
X81665000Y-107885000D03*
D44*
X78620000Y-105230000D03*
X78620000Y-106500000D03*
X78620000Y-107770000D03*
X78620000Y-109040000D03*
X83570000Y-109040000D03*
X83570000Y-107770000D03*
X83570000Y-106500000D03*
X83570000Y-105230000D03*
%TD*%
D14*
%TO.C,C2*%
X133845000Y-95460000D03*
X132295000Y-95460000D03*
%TD*%
M02*
