M48
; DRILL file {KiCad 8.0.3} date 2025-03-22T09:07:59+0700
; FORMAT={-:-/ absolute / inch / decimal}
; #@! TF.CreationDate,2025-03-22T09:07:59+07:00
; #@! TF.GenerationSoftware,Kicad,Pcbnew,8.0.3
; #@! TF.FileFunction,Plated,1,2,PTH
FMAT,2
INCH
; #@! TA.AperFunction,Plated,PTH,ComponentDrill
T1C0.0079
; #@! TA.AperFunction,Plated,PTH,ViaDrill
T2C0.0118
; #@! TA.AperFunction,Plated,PTH,ComponentDrill
T3C0.0236
; #@! TA.AperFunction,Plated,PTH,ComponentDrill
T4C0.0354
; #@! TA.AperFunction,Plated,PTH,ComponentDrill
T5C0.0374
; #@! TA.AperFunction,Plated,PTH,ComponentDrill
T6C0.0394
; #@! TA.AperFunction,Plated,PTH,ComponentDrill
T7C0.0433
; #@! TA.AperFunction,Plated,PTH,ComponentDrill
T8C0.0469
; #@! TA.AperFunction,Plated,PTH,ComponentDrill
T9C0.0512
%
G90
G05
T1
X5.6181Y-4.002
X5.6181Y-4.0571
X5.6457Y-3.9744
X5.6457Y-4.0295
X5.6457Y-4.0846
X5.6732Y-4.002
X5.6732Y-4.0571
X5.7008Y-3.9744
X5.7008Y-4.0295
X5.7008Y-4.0846
X5.7283Y-4.002
X5.7283Y-4.0571
T2
X3.2307Y-4.1276
X3.2921Y-4.3626
X3.35Y-4.1921
X3.3508Y-4.4142
X3.4717Y-6.0283
X3.5583Y-3.9421
X3.6303Y-6.0035
X3.6772Y-5.9228
X3.7646Y-5.252
X3.7665Y-5.4244
X3.7959Y-5.3643
X3.859Y-4.06
X3.8877Y-6.1531
X3.8992Y-6.0047
X3.923Y-4.1398
X3.972Y-3.986
X3.9843Y-5.4398
X4.1382Y-4.4232
X4.2031Y-4.113
X4.23Y-4.431
X4.35Y-4.2957
X4.5276Y-6.0106
X4.8136Y-6.1657
X5.0126Y-4.5378
X5.0224Y-5.3819
X5.0441Y-5.0972
X5.1146Y-5.4094
X5.1689Y-3.7579
X5.2098Y-5.274
X5.2138Y-5.1012
X5.2504Y-3.7106
X5.2587Y-5.2996
X5.2598Y-5.1433
X5.2744Y-3.965
X5.3488Y-5.2378
X5.3992Y-5.3598
X5.4449Y-4.272
X5.4528Y-4.2213
X5.4535Y-3.9291
X5.4575Y-3.8815
X5.4606Y-4.1752
X5.4614Y-3.978
X5.4618Y-4.1224
X5.463Y-4.0244
X5.4642Y-6.0043
X5.4654Y-4.0783
X5.4654Y-5.1417
X5.5138Y-4.9228
X5.5252Y-4.5417
X5.6024Y-4.3567
X5.6193Y-4.7772
X5.6303Y-5.3185
X5.6417Y-4.8657
X5.6539Y-4.5605
X5.6705Y-4.6909
X5.6899Y-4.565
X5.7087Y-6.1516
X5.7156Y-5.8673
X5.7365Y-6.0059
X5.7388Y-4.5829
X5.7433Y-5.4075
X5.7742Y-4.7034
X5.7859Y-4.5575
X5.8067Y-4.7079
X5.8106Y-4.7764
X5.8177Y-5.0657
X5.8197Y-5.3004
X5.8229Y-4.5539
X5.8492Y-5.5177
X5.8566Y-4.5541
X5.8835Y-4.707
X5.89Y-4.5541
X5.9008Y-5.5319
X5.923Y-4.708
X5.9272Y-4.5579
X5.9528Y-4.5807
X5.9531Y-4.9236
X5.9543Y-5.4055
X5.9583Y-5.1083
X5.9819Y-5.0264
X6.0585Y-4.9837
X6.1508Y-3.7787
X6.1543Y-3.826
X6.1559Y-3.9287
X6.1567Y-3.8756
X6.165Y-4.3756
X6.1823Y-5.3677
X6.1913Y-5.0909
X6.2002Y-4.1852
X6.2028Y-5.3988
X6.2165Y-5.1756
X6.248Y-5.3366
X6.2638Y-5.3023
X6.4035Y-5.9921
T4
X3.4543Y-4.2398
X3.6512Y-4.1413
X3.6512Y-4.3382
T5
X3.1845Y-5.913
X3.1845Y-6.0114
X3.1845Y-6.1098
X3.1854Y-3.7488
X3.2839Y-3.7488
X3.3823Y-3.7488
T6
X3.7744Y-4.6878
X3.8744Y-4.6878
X3.9744Y-4.6878
X4.0744Y-4.6878
X4.1744Y-4.6878
X6.4228Y-3.8988
X6.4228Y-3.9988
X6.4228Y-4.0988
X6.4228Y-4.1988
X6.4228Y-4.2988
X6.4228Y-4.3988
X6.4248Y-4.5472
X6.4248Y-4.6472
X6.4248Y-4.7472
X6.4248Y-4.8472
X6.4248Y-4.9472
T7
X4.652Y-3.517
X4.652Y-3.917
T8
X3.2811Y-4.6996
X3.3811Y-4.6996
X3.4811Y-4.6996
X3.6728Y-3.5524
X3.7728Y-3.5524
X3.956Y-3.558
X4.056Y-3.558
X4.156Y-3.558
X4.3567Y-3.5623
X4.4567Y-3.5623
X4.5681Y-5.4039
X4.5681Y-5.5039
X4.5681Y-5.6039
X4.5772Y-5.0807
X4.5772Y-5.1807
X6.4945Y-5.1039
X6.4945Y-5.2039
T9
X3.0844Y-5.328
X3.0844Y-5.528
T3
G00X5.689Y-5.4705
M15
G01X5.689Y-5.5138
M16
G05
G00X5.689Y-5.6417
M15
G01X5.689Y-5.6732
M16
G05
G00X6.0291Y-5.4705
M15
G01X6.0291Y-5.5138
M16
G05
G00X6.0291Y-5.6417
M15
G01X6.0291Y-5.6732
M16
G05
M30
